<?xml version="1.0" encoding="UTF-8"?>
<svg width="729px" height="610px" viewBox="0 0 729 610" version="1.1" xmlns="http://www.w3.org/2000/svg" xmlns:xlink="http://www.w3.org/1999/xlink">
    <!-- Generator: Sketch 53.2 (72643) - https://sketchapp.com -->
    <title>Sign Online</title>
    <desc>Created with Sketch.</desc>
    <g id="Illustrations" stroke="none" stroke-width="1" fill="none" fill-rule="evenodd">
        <g id="Artboard-Copy-14" transform="translate(-18.000000, -154.000000)" fill-rule="nonzero">
            <g id="Sign-Online" transform="translate(18.000000, 77.000000)">
                <g id="sign" transform="translate(0.000000, 76.844677)">
                    <g id="Group" transform="translate(0.137353, 0.319026)">
                        <polygon id="Rectangle" fill="#FFFFFF" transform="translate(230.183088, 208.225231) rotate(-10.299722) translate(-230.183088, -208.225231) " points="59.4634515 70.7999215 400.896662 70.8074512 400.902724 345.65054 59.4695133 345.643011"></polygon>
                        <polygon id="Path" fill="#E8EFFF" points="373.584586 42.4449672 37.6004847 103.548899 0.0864378958 61.1132121 336.070539 0.00928075811"></polygon>
                        <polygon id="Path" fill="#E8EFFF" points="474.630486 358.854433 138.732823 419.871938 86.7836474 373.892742 422.68131 312.875238"></polygon>
                        <path d="M95.0816854,148.49097 C134.410928,141.317524 174.17236,133.539088 212.723662,127.143486" id="Path" fill="#5448ED"></path>
                        <path d="M95.0816854,149.787376 C94.4766201,149.787376 93.9579927,149.35524 93.7851169,148.750251 C93.698679,148.058834 94.1308685,147.367418 94.8223717,147.280991 C107.355867,145.033887 120.062237,142.61393 132.422856,140.280399 C158.872852,135.354057 186.187227,130.25486 212.464348,125.84708 C213.155851,125.760653 213.847354,126.192788 213.933792,126.884205 C214.02023,127.575621 213.58804,128.267038 212.896537,128.353465 C186.619417,132.761245 159.305042,137.860441 132.941484,142.786784 C120.580865,145.120314 107.874494,147.453845 95.340999,149.787376 C95.1681232,149.787376 95.1681232,149.787376 95.0816854,149.787376 Z" id="Path" fill="#007AF4"></path>
                        <path d="M103.293285,182.197523 C102.68822,182.197523 102.169593,181.765388 101.996717,181.160398 C101.910279,180.468982 102.342469,179.777565 103.033972,179.691138 C115.567467,177.444035 128.273837,175.024077 140.634456,172.690546 C167.084453,167.764204 194.398828,162.665007 220.675948,158.257227 C221.367451,158.1708 222.058954,158.602936 222.145392,159.294352 C222.23183,159.985769 221.799641,160.677185 221.108137,160.763612 C194.831017,165.171392 167.516642,170.270589 141.066646,175.196931 C128.706027,177.530462 115.999656,179.863992 103.466161,182.197523 C103.379723,182.197523 103.379723,182.197523 103.293285,182.197523 Z" id="Path" fill="#007AF4"></path>
                        <path d="M188.521051,200.087924 C187.915985,200.087924 187.397358,199.655789 187.224482,199.0508 C187.138044,198.359383 187.570234,197.667967 188.261737,197.58154 C202.956179,194.902301 215.835426,192.655197 227.504542,190.753802 C228.196045,190.667375 228.887548,191.09951 228.973986,191.790927 C229.060424,192.482343 228.628234,193.17376 227.936731,193.260187 C216.267615,195.161582 203.474807,197.408686 188.780364,200.087924 C188.693926,200.087924 188.607489,200.087924 188.521051,200.087924 Z" id="Path" fill="#007AF4"></path>
                        <path d="M158.786415,205.532829 C158.181349,205.532829 157.662722,205.100694 157.489846,204.495704 C157.31697,203.804288 157.835598,203.112871 158.527101,202.940017 L158.872852,202.85359 C166.479387,201.470757 169.418276,200.865768 177.111248,199.482935 C177.802752,199.310081 178.494255,199.828643 178.580693,200.52006 C178.753568,201.211476 178.234941,201.902893 177.543438,201.98932 C169.850465,203.372153 166.911577,203.977142 159.305042,205.359975 L158.95929,205.446402 C158.95929,205.532829 158.872852,205.532829 158.786415,205.532829 Z" id="Path" fill="#007AF4"></path>
                    </g>
                    <g id="Group" transform="translate(251.671630, 203.086189)" fill="#FFC046">
                        <path d="M19.102775,99.6504 C18.8434613,99.6504 18.5841476,99.4775459 18.4112718,99.3046918 C8.38447589,84.5256646 9.76748222,67.6723879 12.7063707,51.5969548 C15.4723833,36.6450734 23.7704213,21.3474838 30.4261393,18.8410991 C32.1548972,18.2361096 33.7107794,18.4089638 35.0073478,19.4460885 C38.0326741,21.9524732 38.3784257,34.4843969 37.7733605,48.0534453 C39.5021184,46.15205 41.3173142,45.0284982 42.9596342,45.1149253 C46.1578363,45.3742064 48.4052216,51.1648195 49.788228,55.7454536 C49.9611038,55.3133183 50.1339795,54.881183 50.3932932,54.5354748 C54.5423122,45.8063417 56.8761354,42.6949676 59.0370828,43.0406758 C60.506527,43.299957 61.370906,44.9420711 61.8895334,48.5720077 C62.7539123,54.3626207 63.7047292,58.5111195 65.9521145,59.6346713 C67.162245,60.2396607 68.804565,59.9803796 71.0519503,58.7704007 C74.8552177,56.6961513 79.8686157,50.55983 83.0668178,45.2013523 C82.9803799,45.1149253 82.9803799,45.0284982 82.893942,44.8556441 C81.5109357,42.4356864 80.8194325,38.3736146 82.3753147,36.126511 C83.1532557,35.0029593 84.3633863,34.3979698 85.8328305,34.657251 C86.9565231,34.8301051 87.7344642,35.5215216 87.90734,36.6450734 C88.2530916,38.5464687 87.1293989,41.6578429 85.2277652,45.0284982 C85.5735168,45.3742064 86.0057063,45.6334876 86.5243337,45.5470606 C89.9818495,45.2877794 96.6375675,32.4965745 96.4646917,26.5331074 C96.4646917,26.014545 96.8104433,25.6688368 97.3290706,25.6688368 C97.847698,25.6688368 98.1934496,26.014545 98.1934496,26.5331074 C98.3663254,32.5830016 91.7106074,46.9298935 86.6107716,47.2756018 C85.8328305,47.3620288 84.9684515,47.1027476 84.2769484,46.4977582 C80.8194325,52.2019442 75.460283,58.2518384 71.8298914,60.2396607 C69.0638787,61.7089208 66.9029313,61.9682019 65.1741734,61.1039313 C62.3217229,59.6346713 61.1115923,55.3133183 60.1607755,48.7448618 C59.6421481,44.8556441 58.7777691,44.68279 58.7777691,44.68279 C58.1727039,44.5963629 56.4439459,45.8063417 51.9491754,55.2268913 C51.430548,56.350443 50.9983585,57.3875678 50.566169,58.4246925 C50.8254827,59.6346713 51.0847964,60.585369 51.0847964,60.9310772 C51.6898617,63.8695973 53.2457438,73.4630009 50.2204174,75.018688 C49.1831627,75.5372503 48.2323458,75.4508233 47.4544048,74.6729797 C45.3798953,72.5987303 46.0713984,65.5117114 48.7509732,58.2518384 C47.1086532,51.7698089 44.6883921,46.9298935 42.8731963,46.7570394 C41.4037521,46.6706123 39.5885563,48.2262994 37.6004847,50.8191112 C36.7361057,65.6845655 34.7480341,81.1550092 33.7107794,85.8220705 C32.2413351,92.3041 30.1668256,93.3412247 28.6973814,93.0819435 C25.4991793,92.4769541 24.029735,84.9577999 25.4991793,76.6608021 C26.9686235,68.1909502 31.2040804,56.8690054 35.8717267,50.3005489 C36.6496678,36.126511 36.476792,22.8167438 33.8836551,20.6560673 C33.1057141,19.9646508 32.1548972,19.8782238 31.0312046,20.3103591 C25.4991793,22.2981815 17.2011413,36.2129381 14.3486907,51.6833818 C10.3725475,73.1172927 11.9284296,86.599914 19.7942781,98.18114 C20.0535918,98.6132753 19.9671539,99.1318377 19.5349644,99.3911189 C19.4485265,99.563973 19.2756508,99.6504 19.102775,99.6504 Z M35.698851,53.8440583 C32.1548972,59.8075254 28.6973814,68.7959397 27.2279372,77.0065104 C25.7584929,85.4763622 27.5736888,91.1805482 29.043133,91.4398294 C29.7346361,91.6126835 31.0312046,90.1434235 32.0684593,85.5627893 C33.2785899,80.1178845 34.834472,66.9809714 35.698851,53.8440583 Z M49.4424764,61.6224937 C47.5408427,67.7588149 47.6272806,72.5987303 48.6645353,73.549428 C48.7509732,73.635855 48.923849,73.8087091 49.4424764,73.549428 C50.3068553,73.1172927 50.8254827,69.0552208 49.4424764,61.6224937 Z M85.1413273,36.2993652 C84.5362621,36.2993652 84.0176347,36.5586463 83.6718831,37.0772087 C82.8075042,38.3736146 82.9803799,41.2257076 83.9311968,43.3863841 C85.400641,40.6207181 86.26502,38.2007605 86.0921442,36.9043546 C86.0057063,36.4722193 85.8328305,36.3857922 85.4870789,36.2993652 C85.400641,36.3857922 85.3142031,36.2993652 85.1413273,36.2993652 Z" id="Shape"></path>
                        <path d="M98.4527633,25.4959827 C97.5019464,24.8045662 96.205378,25.4959827 96.0325022,26.6195344 C95.9460643,27.2245239 96.205378,27.8295133 96.7240054,28.0887945 C96.9833191,28.2616486 97.3290706,28.2616486 97.6748222,28.2616486 C97.847698,28.2616486 98.0205738,28.2616486 98.2798875,28.1752215 C99.3171422,27.6566592 99.490018,26.1009721 98.4527633,25.4959827 Z" id="Path"></path>
                        <path d="M22.9060424,19.1868073 C21.1772845,13.1369131 19.4485265,7.08701891 17.8062065,1.03712472 C17.5468928,-5.55111512e-17 15.8181349,0.432135299 16.1638865,1.46926002 C17.8926444,7.51915421 19.6214023,13.5690484 21.2637224,19.6189426 C21.523036,20.7424944 23.251794,20.3103591 22.9060424,19.1868073 Z" id="Path"></path>
                        <path d="M13.1385602,22.8167438 C9.07597906,20.6560673 5.18627375,18.3225367 1.38300633,15.902579 C0.432189479,15.2975896 -0.432189479,16.7668496 0.518627375,17.371839 C4.32189479,19.8782238 8.29803799,22.2117544 12.2741812,24.2860038 C13.2249981,24.8045662 14.089377,23.3353062 13.1385602,22.8167438 Z" id="Path"></path>
                        <path d="M8.64378958,107.515262 C7.00146956,108.898095 5.35914954,110.194501 3.71682952,111.577334 C2.85245056,112.268751 4.0625811,113.47873 4.92696006,112.787313 C6.56928008,111.40448 8.2116001,110.108074 9.85392012,108.725241 C10.7182991,107.947398 9.50816854,106.737419 8.64378958,107.515262 Z" id="Path"></path>
                        <path d="M50.6526069,31.4594498 C49.7017901,33.6201263 48.7509732,35.7808028 47.7137185,38.0279063 C47.281529,39.0650311 48.7509732,39.9293017 49.1831627,38.8921769 L52.1220512,32.3237204 C52.6406785,31.2865957 51.0847964,30.4223251 50.6526069,31.4594498 Z" id="Path"></path>
                    </g>
                    <g id="Group" transform="translate(510.120938, 221.235872)">
                        <path d="M5.79133902,102.761774 L105.627109,102.761774 C105.108481,99.8232542 104.589854,96.7983071 104.157664,93.859787 C102.601782,83.661394 101.132338,73.4630009 99.0578286,63.437462 C95.4274369,46.15205 91.3648558,28.9530651 89.0310326,11.4083719 L80.7329947,8.72913305 L69.4960682,5.09919653 L69.4096303,5.09919653 L61.4573439,3.80279063 L40.5393731,0.34570824 L0.691503166,28.2616486 C2.42026108,55.2268913 5.96421481,81.2414363 7.43365904,91.6991105 C7.86584852,94.8104847 8.1251622,96.5390259 8.1251622,96.5390259 C8.1251622,96.5390259 8.03872431,96.7983071 7.77941062,97.3168694 C7.43365904,98.3539941 6.74215587,100.168962 5.79133902,102.761774 Z" id="Path" fill="#FFFFFF"></path>
                        <polygon id="Path" fill="#E9EEFF" points="38.2919878 5.01276947 42.3545689 9.07484129 47.4544048 2.1606765 52.1220512 11.494799 69.4096303 9.42054953 67.7673103 5.01276947 40.4529352 0.34570824"></polygon>
                        <path d="M46.2442742,97.4032965 L45.3798953,97.4032965 C45.4663332,92.7362353 45.4663332,84.5256646 45.4663332,74.9322609 C45.4663332,50.3869759 45.4663332,16.8532767 47.0222153,0.34570824 L47.8865943,0.432135299 C46.3307121,16.9397037 46.3307121,50.473403 46.3307121,74.9322609 C46.41715,84.5256646 46.41715,92.7362353 46.2442742,97.4032965 Z" id="Path" fill="#E9EEFF"></path>
                    </g>
                    <g id="Group" transform="translate(426.276180, 607.564830)" fill="#000000">
                        <rect id="Rectangle" x="284.467115" y="0.34570824" width="18.1519581" height="1.7285412"></rect>
                        <path d="M244.01418,2.07424944 L151.525631,2.07424944 C151.007004,2.07424944 150.661252,1.7285412 150.661252,1.20997884 C150.661252,0.691416479 151.007004,0.34570824 151.525631,0.34570824 L244.100618,0.34570824 C244.619245,0.34570824 244.964997,0.691416479 244.964997,1.20997884 C244.964997,1.7285412 244.532807,2.07424944 244.01418,2.07424944 Z" id="Path"></path>
                        <path d="M140.029391,2.07424944 L128.533151,2.07424944 C128.014524,2.07424944 127.668772,1.7285412 127.668772,1.20997884 C127.668772,0.691416479 128.014524,0.34570824 128.533151,0.34570824 L140.029391,0.34570824 C140.548019,0.34570824 140.89377,0.691416479 140.89377,1.20997884 C140.89377,1.7285412 140.461581,2.07424944 140.029391,2.07424944 Z" id="Path"></path>
                        <path d="M117.209787,2.07424944 L0.950816854,2.07424944 C0.432189479,2.07424944 0.0864378958,1.7285412 0.0864378958,1.20997884 C0.0864378958,0.691416479 0.432189479,0.34570824 0.950816854,0.34570824 L117.296225,0.34570824 C117.814852,0.34570824 118.160604,0.691416479 118.160604,1.20997884 C118.160604,1.7285412 117.728414,2.07424944 117.209787,2.07424944 Z" id="Path"></path>
                    </g>
                    <g id="Group" transform="translate(449.614411, 317.169908)">
                        <path d="M217.477746,259.626888 C211.254217,262.738262 204.944251,265.503928 198.374971,267.664604 C191.114188,270.084562 181.087392,272.850228 173.135105,270.516697 C173.135105,270.516697 173.135105,270.43027 173.221543,270.43027 C173.307981,270.343843 173.307981,270.257416 173.394419,270.170989 C173.394419,270.084562 173.480857,269.998135 173.480857,269.911708 C173.567295,269.825281 173.567295,269.652427 173.653733,269.566 C173.826608,269.220292 173.913046,268.874583 173.999484,268.442448 C173.999484,268.356021 174.085922,268.269594 174.085922,268.09674 C174.085922,268.010313 174.17236,267.923886 174.17236,267.751032 C174.17236,267.664604 174.17236,267.49175 174.258798,267.405323 C174.345236,266.973188 174.345236,266.541053 174.345236,266.02249 C174.345236,265.417501 174.345236,264.898939 174.258798,264.207522 L174.258798,264.207522 C173.653733,259.108326 170.541968,252.107734 166.392949,243.292174 C180.395888,239.835091 194.225952,235.600165 207.796701,230.587396 C210.476276,238.279404 212.810099,244.934288 214.625295,250.379192 C214.884609,251.070609 215.143923,251.848453 215.403236,252.539869 C216.094739,255.132681 216.87268,257.466211 217.477746,259.626888 Z" id="Path" fill="#FFB1B6"></path>
                        <path d="M68.8910029,277.344435 C73.3857735,277.430862 78.1398578,276.998727 82.7210663,276.134456 C82.7210663,268.701729 82.8075042,259.972596 82.6346284,252.626296 C80.2143673,252.539869 77.7941062,252.453442 75.3738451,252.280588 C67.4215587,251.848453 59.4692723,251.157036 51.6034238,250.033484 C48.2323458,249.514922 44.9477058,248.823505 41.5766279,248.132089 C42.6138826,258.762617 42.7867584,265.417501 40.1936215,268.269594 C39.9343078,268.528875 39.6749942,268.788156 39.4156805,269.047437 C47.8865943,274.924477 58.864207,277.258008 68.8910029,277.344435 Z" id="Path" fill="#FFB1B6"></path>
                        <path d="M199.757977,208.202787 C182.643274,160.754331 172.616478,78.7350516 171.147034,42.3492593 C171.060596,40.5342911 170.974158,38.8057499 170.974158,37.1636358 C170.974158,35.2622404 170.88772,33.5336992 170.974158,31.9780122 C169.2454,29.9037627 167.689518,27.7430862 166.220074,25.5824097 C161.811741,19.0139532 158.181349,12.0133613 154.03233,5.27205065 C125.421387,5.70418595 96.8968812,4.49420711 68.6316892,0.25928118 C68.6316892,0.518562359 68.7181271,0.691416479 68.7181271,0.691416479 C68.7181271,0.691416479 68.6316892,0.950697659 68.3723756,1.46926002 C67.8537482,2.85209298 66.7300555,5.87704007 65.0877355,10.3712472 C57.5676386,31.718731 40.4529352,85.7356434 37.0818573,144.160336 C33.7107794,201.115768 36.2174783,238.365831 37.0818573,256.688368 C38.8106152,257.293357 40.7122489,257.639066 42.8731963,257.898347 C43.13251,257.898347 43.4782616,257.984774 43.7375753,257.984774 C52.208489,258.935471 63.013226,257.984774 69.5825061,257.552638 C73.9908388,257.293357 78.3991715,256.861222 82.8075042,256.256233 C82.8075042,253.317713 82.7210663,250.46562 82.6346284,247.959235 C82.2024389,230.241688 78.8313609,132.406256 113.060768,69.314502 C115.481029,97.5761506 134.929555,174.928369 146.425795,204.918559 C154.983147,227.476022 163.88625,246.662829 168.294583,258.330482 C171.233472,258.330482 174.950301,257.639066 179.09932,256.515514 C179.358634,256.429087 179.617947,256.34266 179.963699,256.256233 C192.497194,252.626296 207.623826,245.107142 211.513531,241.04507 C208.142453,232.056656 204.252748,220.993992 199.757977,208.202787 Z" id="Path" fill="#007AF4"></path>
                        <path d="M72.7807082,30.1630439 C72.6078325,30.1630439 72.4349567,30.0766168 72.3485188,30.0766168 C67.9401861,29.4716274 63.7047292,28.4345027 59.2963965,27.9159403 C57.6540765,33.2744181 55.8388807,39.2378852 54.1101228,45.8063417 C61.2844681,41.830697 67.9401861,36.8179275 72.7807082,30.1630439 Z" id="Path" fill="#050303"></path>
                        <path d="M172.53004,62.8324725 C170.628406,60.8446502 168.81321,59.202536 167.084453,57.4739948 C165.182819,55.6590266 163.454061,53.7576312 161.898179,51.5969548 C157.74916,45.6334876 154.550958,39.0650311 152.044259,32.1508663 C149.10537,24.2860038 147.117299,15.9890061 145.561416,7.77843539 C153.773017,7.95128951 162.071055,7.95128951 170.282655,7.00059185 C170.369093,8.12414363 170.541968,9.24769541 170.628406,10.2848201 C171.319909,17.5446932 171.579223,23.4217332 171.147034,26.8788156 C170.88772,29.0394921 170.801282,32.2372933 170.88772,36.2993652 C170.88772,36.5586463 170.88772,36.8179275 170.88772,37.0772087 C170.88772,38.7193228 170.974158,40.447864 171.060596,42.2628323 C171.233472,45.4606335 171.406347,48.9177159 171.665661,52.8069336 C171.924975,56.0047348 172.184288,59.2889631 172.53004,62.8324725 Z" id="Path" fill="#050303"></path>
                        <path d="M155.415337,1.46926002 L73.7315251,1.46926002 C72.6078325,4.40778005 71.4841398,7.43272715 70.2740093,10.3712472 L158.527101,10.3712472 C157.31697,7.43272715 156.452591,4.40778005 155.415337,1.46926002 Z" id="Path" fill="#050303"></path>
                        <path d="M64.1369187,275.270186 C55.8388807,273.628072 49.9611038,266.541053 41.6630658,265.503928 C41.3173142,266.62748 40.8851247,267.578177 40.2800594,268.269594 C32.9328383,276.480165 7.77941062,279.332258 3.54395373,285.122871 C0.518627375,289.271369 0.518627375,291.6049 0.518627375,291.6049 L53.5050575,291.6049 C54.1101228,290.394921 55.3202533,289.444224 57.1354491,289.444224 C58.9506449,289.444224 60.1607755,290.394921 60.7658407,291.6049 L82.6346284,291.6049 C82.6346284,291.6049 82.7210663,283.221475 82.8075042,273.109509 C76.7568514,275.270186 70.533323,276.566592 64.1369187,275.270186 Z" id="Path" fill="#050303"></path>
                        <path d="M220.675948,271.03526 L214.538857,275.183759 C214.02023,274.924477 213.328727,274.751623 212.637224,274.751623 C209.784773,274.751623 208.401767,276.998727 208.488205,279.24583 L190.163371,291.6049 L145.474979,291.6049 C143.746221,281.233653 165.096381,279.072976 172.443602,271.294541 C172.702916,271.03526 172.875792,270.775979 173.135105,270.43027 C173.135105,270.43027 173.135105,270.343843 173.221543,270.343843 C173.307981,270.257416 173.307981,270.170989 173.394419,270.084562 C173.394419,269.998135 173.480857,269.911708 173.480857,269.825281 C173.567295,269.738854 173.567295,269.566 173.653733,269.479573 C173.826608,269.133864 173.913046,268.788156 173.999484,268.356021 C173.999484,268.269594 174.085922,268.183167 174.085922,268.010313 C174.085922,267.923886 174.17236,267.837459 174.17236,267.664604 C174.17236,267.578177 174.17236,267.405323 174.258798,267.318896 C174.345236,266.886761 174.345236,266.454626 174.345236,265.936063 C174.345236,265.417501 174.345236,264.812511 174.258798,264.121095 L174.258798,264.121095 C181.951771,259.972596 195.868272,264.726084 203.73412,260.75044 C208.401767,258.416909 211.772845,254.527691 214.625295,250.292765 C214.884609,250.984182 215.143923,251.762025 215.403236,252.453442 C216.267615,254.959827 216.959118,257.293357 217.564184,259.367607 C219.638693,266.541053 220.675948,271.03526 220.675948,271.03526 Z" id="Path" fill="#050303"></path>
                        <path d="M128.187399,1.12355178 L128.187399,11.4083719 C128.187399,12.4454966 129.916157,12.4454966 129.916157,11.4083719 L129.916157,1.12355178 C129.916157,0.0864270599 128.187399,0.0864270599 128.187399,1.12355178 Z" id="Path" fill="#007AF4"></path>
                        <path d="M112.455702,68.7959397 C112.369265,68.3638044 111.850637,63.6103161 111.591323,62.2274831 C111.591323,61.9682019 111.418448,61.7953478 111.159134,61.7089208 C109.171062,61.1039313 100.267959,58.3382654 99.6628938,58.0789842 C98.9713907,57.8197031 99.3171422,57.0418595 99.9222075,57.2147136 C100.527273,57.3875678 112.282827,61.1039313 112.282827,61.1039313 L112.282827,61.3632125 C112.282827,61.3632125 113.060768,67.7588149 113.233643,68.6230855 C113.320081,69.4009291 112.54214,69.314502 112.455702,68.7959397 Z" id="Path" fill="#000000"></path>
                        <path d="M179.790823,256.256233 C179.53151,256.34266 179.185758,256.429087 178.926444,256.515514 C177.370562,253.490567 175.901118,250.379192 174.345236,247.354245 C162.416806,222.463252 152.8222,196.535134 145.474979,169.9156 C145.302103,169.397037 146.166482,169.137756 146.339358,169.656319 C148.413867,177.2619 150.661252,184.781054 153.081513,192.213781 C160.428735,214.252681 169.331838,235.600165 179.790823,256.256233 Z" id="Path" fill="#050303"></path>
                        <path d="M43.7375753,257.984774 C43.4782616,257.984774 43.13251,257.898347 42.8731963,257.898347 C42.7003205,254.700545 42.5274447,251.416317 42.3545689,248.218516 C40.9715626,219.524732 40.625811,190.744521 41.4037521,161.96431 C41.4037521,161.445748 42.268131,161.445748 42.268131,161.96431 C42.0952552,170.088454 41.9223795,178.299025 41.9223795,186.423168 C41.7495037,210.277037 42.3545689,234.130905 43.7375753,257.984774 Z" id="Path" fill="#050303"></path>
                        <path d="M175.209615,277.430862 C171.319909,277.344435 167.516642,277.344435 163.713375,277.517289 C163.194747,277.517289 163.194747,278.38156 163.713375,278.38156 C167.516642,278.208706 171.406347,278.122279 175.209615,278.295133 C175.81468,278.295133 175.81468,277.430862 175.209615,277.430862 Z" id="Path" fill="#0035DB"></path>
                        <rect id="Rectangle" fill="#000002" x="105.97286" y="10.2848201" width="1" height="49.3498512"></rect>
                        <path d="M112.97433,10.5441013 L103.033972,10.5441013 C101.0459,10.5441013 99.4035801,8.90198717 99.4035801,6.91416479 L99.4035801,4.75348829 C99.4035801,2.76566592 101.0459,1.12355178 103.033972,1.12355178 L112.97433,1.12355178 C114.962401,1.12355178 116.604721,2.76566592 116.604721,4.75348829 L116.604721,6.91416479 C116.604721,8.90198717 114.962401,10.5441013 112.97433,10.5441013 Z M103.033972,1.90139532 C101.47809,1.90139532 100.267959,3.19780122 100.267959,4.66706123 L100.267959,6.82773773 C100.267959,8.38342481 101.564528,9.59340365 103.033972,9.59340365 L112.97433,9.59340365 C114.530212,9.59340365 115.740342,8.29699775 115.740342,6.82773773 L115.740342,4.66706123 C115.740342,3.11137416 114.443774,1.90139532 112.97433,1.90139532 L103.033972,1.90139532 Z" id="Shape" fill="#E4A832"></path>
                    </g>
                    <g id="Group" transform="translate(348.482073, 193.579213)">
                        <g id="Path">
                            <path d="M29.4753225,15.6432978 L26.7957477,18.2361096 L22.2145392,11.1490907 C14.2622528,13.3961943 12.5334949,15.0383084 11.9284296,17.5446932 C11.9284296,17.5446932 9.68104433,17.6311202 7.86584852,21.0017756 C7.86584852,21.0017756 5.87777691,21.7796191 5.27271164,24.0267226 C4.75408427,25.7552638 5.35914954,28.0887945 6.1370906,33.5336992 L9.85392012,34.9165322 C16.7689518,36.040084 18.3248339,34.8301051 18.3248339,34.8301051 C18.3248339,34.8301051 27.5736888,48.6584347 44.3426405,46.15205 C61.0251544,43.6456652 29.4753225,15.6432978 29.4753225,15.6432978 Z" fill="#FFB1B6"></path>
                            <path d="M57.5676386,24.4588579 C53.8508091,22.0389003 37.9462362,12.5319237 28.5245056,8.29699775 C22.4738529,5.61775889 18.8434613,10.5441013 17.2011413,13.2233402 C9.16241695,26.6195344 7.26078325,27.9159403 13.8300633,27.1380968 C17.8062065,26.6195344 32.0684593,29.2987733 42.9596342,28.4345027 C50.1339795,27.8295133 57.5676386,24.4588579 57.5676386,24.4588579 Z" fill="#FFB1B6"></path>
                            <g>
                                <path d="M8.90310326,31.1137416 L0.60506527,34.9165322 C-0.60506527,35.4350946 0.259313687,37.3364899 1.46944423,36.8179275 L9.76748222,33.0151369 C10.9776128,32.4101475 10.1132338,30.5951792 8.90310326,31.1137416 Z" fill="#3E1E39"></path>
                                <path d="M70.2740093,8.64270599 L51.8627375,17.1125579 L51.0847964,17.4582661 L10.8911749,35.9536569 L5.70490112,36.2993652 C3.45751583,36.4722193 2.24738529,33.7929804 3.80326741,32.1508663 L7.43365904,28.4345027 L47.5408427,9.93911189 L48.3187837,9.59340365 L66.7300555,1.12355178 C68.1994998,0.432135299 69.8418198,1.12355178 70.533323,2.50638474 L71.6570156,4.83991535 C72.3485188,6.22274831 71.7434535,7.95128951 70.2740093,8.64270599 Z" fill="#DB3E4D"></path>
                                <path d="M7.43365904,28.3480756 L3.80326741,32.0644392 C2.24738529,33.7065534 3.45751583,36.3857922 5.70490112,36.2129381 L10.8911749,35.8672299 L7.43365904,28.3480756 Z" fill="#0035DB"></path>
                                <path d="M68.9774408,12.1862154 L68.9774408,12.1862154 L66.4707419,6.74131067 C65.9521145,5.53133183 64.0504808,6.39560243 64.5691081,7.60558127 L67.0758071,13.050486 L50.0475417,20.9153485 C48.8374111,21.4339109 49.7017901,23.3353062 50.9119206,22.8167438 L69.8418198,14.0876108 L68.9774408,12.1862154 Z" fill="#DB3E4D"></path>
                                <path d="M51.8627375,17.1125579 L51.0847964,17.4582661 C49.8746659,14.9518814 48.7509732,12.4454966 47.5408427,9.93911189 L48.3187837,9.59340365 C49.5289143,12.0133613 50.7390448,14.5197461 51.8627375,17.1125579 Z" fill="#FFC046"></path>
                            </g>
                            <path d="M84.9684515,44.4235088 C81.5973736,41.3121346 78.1398578,38.6328958 74.7687798,36.040084 C71.6570156,33.7065534 68.5452513,31.6323039 65.4334871,29.5580545 C62.8403502,27.8295133 60.1607755,26.1009721 57.6540765,24.4588579 C56.6168217,23.7674415 54.0236849,24.1131497 51.0847964,25.0638474 C47.1950911,22.3846085 40.3664973,18.5818179 35.4395373,20.3967861 C28.0923161,23.162452 18.4977097,23.5945873 21.4365982,28.0887945 C24.3754866,32.5830016 34.834472,28.9530651 34.834472,28.9530651 C34.834472,28.9530651 32.6735246,36.8179275 35.8717267,38.1143334 C40.625811,45.3742064 44.3426405,49.1769971 49.9611038,56.0911619 C51.5169859,57.9925572 53.1593059,60.0668066 54.9745017,62.4867643 C55.4931291,63.1781808 56.0117565,63.8695973 56.5303838,64.5610137 C58.7777691,67.5859608 60.1607755,70.3516267 61.1115923,71.9073138 C61.8030955,72.9444385 62.4945986,73.9815633 63.1861018,75.018688 C72.6078325,66.8081173 80.6465568,57.3011407 87.8209021,46.9298935 C86.7836474,46.0656229 85.9192684,45.2013523 84.9684515,44.4235088 Z" fill="#FFB1B6"></path>
                            <path d="M12.1877433,22.0389003 C6.1370906,27.9159403 16.1638865,29.3852004 19.2756508,24.3724309 C22.4738529,19.3596614 26.4499961,13.3961943 26.4499961,13.3961943 L19.7078402,13.3097672 L12.1877433,22.0389003 Z" fill="#FFB1B6"></path>
                            <path d="M24.9805519,15.2975896 C23.8568592,17.1125579 22.5602908,18.754672 21.0908466,20.223932 C20.6586571,20.6560673 21.2637224,21.2610567 21.6094739,20.9153485 C23.1653561,19.3596614 24.4619245,17.7175473 25.672055,15.816152 C25.9313687,15.2975896 25.2398656,14.8654543 24.9805519,15.2975896 Z" fill="#000000"></path>
                            <path d="M74.6823419,36.040084 C70.7061987,47.5348829 67.8537482,59.4618172 62.9267881,70.4380538 C60.4200891,68.0180961 57.9133902,65.5117114 55.4066912,63.0053267 C55.2338154,62.8324725 55.0609396,62.6596184 54.8880638,62.4867643 C53.072868,60.0668066 51.3441101,57.9925572 49.8746659,56.0911619 C55.7524428,47.7077371 60.9387165,38.8057499 65.4334871,29.5580545 C68.4588135,31.6323039 71.5705777,33.7065534 74.6823419,36.040084 Z" fill="#FFFFFF"></path>
                            <path d="M45.8985227,41.4849887 C39.9343078,39.9293017 35.6124131,34.4843969 35.4395373,28.2616486 C35.4395373,27.9159403 35.0937857,27.7430862 34.7480341,27.9159403 C31.2905183,29.9901898 27.400813,30.6816063 23.4246698,29.8173357 C22.9060424,29.7309086 22.6467287,30.5087521 23.1653561,30.6816063 C27.1414993,31.5458769 31.0312046,30.9408874 34.5751583,29.0394921 C35.0073478,35.3486675 39.5021184,40.7935723 45.639209,42.4356864 C46.2442742,42.4356864 46.5035879,41.5714158 45.8985227,41.4849887 Z" fill="#000000"></path>
                            <path d="M48.0594701,22.4710356 C47.0222153,21.9524732 46.0713984,21.5203379 45.0341437,21.0017756 C44.5155163,20.7424944 44.0833268,21.5203379 44.6019542,21.7796191 C45.639209,22.2981815 46.5900258,22.7303167 47.6272806,23.2488791 C48.0594701,23.4217332 48.4916595,22.7303167 48.0594701,22.4710356 Z" fill="#000000"></path>
                            <path d="M15.8181349,15.3840167 C14.3486907,18.5818179 12.7928086,21.693192 11.3233643,24.8909932 C11.0640507,25.4095556 11.8419917,25.8416909 12.1013054,25.3231285 C13.5707496,22.1253273 15.1266318,19.0139532 16.596076,15.816152 C16.7689518,15.2975896 16.0774486,14.8654543 15.8181349,15.3840167 Z" fill="#000000"></path>
                            <path d="M9.07597906,25.8416909 C8.90310326,24.6317121 8.81666537,23.4217332 8.73022747,22.2981815 C8.73022747,21.7796191 7.86584852,21.7796191 7.86584852,22.2981815 C7.95228641,23.7674415 8.1251622,25.2367015 8.29803799,26.7059615 C8.38447589,27.1380968 9.07597906,27.1380968 9.16241695,26.7059615 C9.16241695,26.5331074 9.24885485,26.4466803 9.24885485,26.2738262 C9.24885485,26.1009721 9.16241695,26.014545 9.07597906,25.8416909 Z" fill="#000000"></path>
                            <path d="M12.7063707,18.6682449 C12.7063707,18.1496826 11.8419917,18.1496826 11.8419917,18.6682449 C11.8419917,19.2732344 11.9284296,19.7917967 11.9284296,20.3967861 C11.9284296,20.9153485 12.7928086,20.9153485 12.7928086,20.3967861 C12.7063707,19.7917967 12.7063707,19.1868073 12.7063707,18.6682449 Z" fill="#000000"></path>
                            <path d="M27.0550614,16.6804226 C26.3635582,16.5939955 25.8449308,16.1618602 25.672055,15.4704437 C25.4991793,14.9518814 24.7212382,15.1247355 24.8076761,15.7297249 C25.0669898,16.6804226 25.8449308,17.4582661 26.7957477,17.5446932 C27.400813,17.6311202 27.5736888,16.7668496 27.0550614,16.6804226 Z" fill="#000000"></path>
                        </g>
                        <path d="M202.0918,28.0023674 C202.0918,28.0023674 195.868272,35.6943757 186.705855,46.238477 C185.322849,47.8805912 183.766966,49.6091324 182.211084,51.3376736 C176.506183,57.733276 170.109779,64.8202949 163.454061,71.7344597 C147.89524,87.982747 131.299164,103.107482 121.877433,105.354586 C121.531681,105.441013 121.18593,105.52744 120.840178,105.613867 C120.840178,105.613867 120.840178,105.613867 120.75374,105.613867 C103.12041,108.984523 76.8432893,92.9090894 51.9491754,67.7588149 C53.072868,66.2895549 54.1965607,64.7338679 55.3202533,63.0053267 C61.8895334,53.411923 69.1503166,40.447864 72.953584,31.1137416 C90.8462285,42.0899782 114.61665,60.2396607 114.61665,60.2396607 C114.61665,60.2396607 123.865505,49.004143 139.424326,32.5830016 C151.871383,19.4460885 161.120238,19.1868073 182.902587,23.7674415 C184.45847,24.1131497 186.014352,24.4588579 187.656672,24.8045662 C192.065004,25.7552638 196.819089,26.8788156 202.0918,28.0023674 Z" id="Path" fill="#0035DB"></path>
                        <path d="M120.75374,66.0302738 C120.667303,66.0302738 120.580865,66.0302738 120.494427,65.9438467 L115.481029,61.4496396 C115.308153,61.2767855 115.308153,61.0175043 115.481029,60.8446502 C115.653905,60.671796 115.913218,60.671796 116.086094,60.8446502 L121.099492,65.3388573 C121.272368,65.5117114 121.272368,65.7709926 121.099492,65.9438467 C121.013054,66.0302738 120.840178,66.0302738 120.75374,66.0302738 Z" id="Path" fill="#FFFFFF"></path>
                    </g>
                    <g id="Group" transform="translate(549.882370, 150.365683)">
                        <path d="M29.6481983,46.4977582 C28.2651919,60.3260878 28.0058782,75.8829586 28.0058782,75.8829586 C28.0058782,75.8829586 8.73022747,74.1544174 0.691503166,71.3023244 L6.0506527,43.9049464 L29.6481983,46.4977582 Z" id="Path" fill="#FFB1B6"></path>
                        <path d="M24.3754866,45.8927688 L6.1370906,43.9049464 L2.67957477,61.2767855 C12.2741812,61.1903584 20.9179708,54.881183 24.3754866,45.8927688 Z" id="Path" fill="#000000" opacity="0.200000003"></path>
                        <path d="M5.79133902,27.9159403 C-0.691503166,39.9293017 -2.24738529,49.09057 8.64378958,54.794756 C19.6214023,60.585369 27.400813,56.1775889 37.1682952,35.5215216 C44.9477058,19.1003802 36.9089815,14.9518814 29.3888846,11.3219448 C18.8434613,6.30917537 14.1758149,12.5319237 5.79133902,27.9159403 Z" id="Path" fill="#FFB1B6"></path>
                        <path d="M30.4261393,8.55627893 C15.5588212,-7.34630009 10.3725475,3.80279063 17.2011413,11.581226 C21.0908466,17.0261308 27.4872509,21.2610567 34.5751583,24.1995768 C32.4142109,29.7309086 29.2160088,35.0029593 35.3530994,38.5464687 C35.4395373,38.6328958 35.5259752,38.6328958 35.5259752,38.7193228 C36.0446025,37.6821981 39.7614321,39.8428746 40.2800594,38.7193228 C43.4782616,32.0644392 46.3307121,26.5331074 44.2562026,21.3474838 C42.3545689,16.4211414 33.8836551,12.1862154 30.4261393,8.55627893 Z" id="Path" fill="#050303"></path>
                        <path d="M30.8583288,35.5215216 C36.9089815,32.0644392 41.8359416,36.6450734 41.2308763,42.1764052 C40.625811,47.7077371 34.0565309,49.9548406 28.0058782,47.62131 L30.8583288,35.5215216 Z" id="Path" fill="#FFB1B6"></path>
                        <ellipse id="Oval" fill="#000002" cx="21.1772845" cy="29.0394921" rx="1.81519581" ry="1.81496826"></ellipse>
                        <path d="M16.6825139,41.5714158 C16.4232002,41.917124 15.9910107,42.1764052 15.5588212,42.0899782 C15.2995076,42.0899782 15.1266318,42.1764052 15.0401939,42.3492593 C14.953756,42.5221135 15.1266318,42.7813946 15.2995076,42.8678217 C16.0774486,42.9542488 16.9418276,42.6949676 17.3740171,41.917124 C17.6333307,41.5714158 16.9418276,41.1392805 16.6825139,41.5714158 Z" id="Path" fill="#000000"></path>
                        <path d="M20.6586571,24.8045662 C20.1400297,24.9774203 20.3993434,25.8416909 20.9179708,25.6688368 C22.5602908,25.0638474 24.2890487,26.3602533 24.029735,28.0887945 C23.9432971,28.6073568 24.8076761,28.866638 24.894114,28.3480756 C25.1534277,25.928118 22.9924803,24.0267226 20.6586571,24.8045662 Z" id="Path" fill="#000002"></path>
                        <path d="M38.0326741,40.5342911 C36.2174783,38.4600416 33.0192762,38.7193228 31.6362699,41.1392805 C31.3769562,41.6578429 32.0684593,42.0899782 32.4142109,41.5714158 C33.5379036,39.6700205 36.0446025,39.4971664 37.4276089,41.1392805 C37.7733605,41.5714158 38.3784257,40.9664264 38.0326741,40.5342911 Z" id="Path" fill="#000000"></path>
                        <path d="M11.4962401,36.9907816 C11.4098022,36.9907816 11.4098022,36.9907816 11.3233643,36.9907816 L7.08790745,35.0893863 L7.17434535,34.7436781 C7.52009693,32.3237204 8.47091379,28.9530651 12.7928086,24.3724309 C12.9656844,24.1995768 13.2249981,24.1995768 13.3978738,24.3724309 C13.5707496,24.545285 13.5707496,24.8045662 13.3978738,24.9774203 C9.42173064,29.2123462 8.47091379,32.3237204 8.03872431,34.570824 L11.6691159,36.2129381 C11.9284296,36.2993652 12.0148675,36.5586463 11.9284296,36.8179275 C11.8419917,36.9043546 11.6691159,36.9907816 11.4962401,36.9907816 Z" id="Path" fill="#000000"></path>
                    </g>
                    <g id="Group" transform="translate(505.799044, 217.778789)">
                        <path d="M44.77483,3.80279063 C44.77483,3.80279063 44.6019542,24.9774203 43.5646995,35.3486675 C42.7867584,42.8678217 41.5766279,58.5975466 39.84787,76.3150939 C39.4156805,80.2907386 39.0699289,84.3528104 38.5513015,88.5013093 L38.5513015,88.5013093 C37.1682952,100.860379 35.6124131,113.392303 33.7107794,124.195685 C30.0803877,145.111034 6.56928008,136.295473 0.777941062,134.826213 C2.0745095,130.418433 3.37107794,126.356362 4.49477058,122.639998 C4.58120848,122.380717 4.66764637,122.035009 4.75408427,121.775727 C7.00146956,114.861563 8.90310326,109.330231 10.2861096,105.613867 C10.3725475,105.268159 10.5454233,105.008878 10.6318612,104.749597 C10.7182991,104.490315 12.3606191,100.082535 12.3606191,100.082535 C12.3606191,100.082535 12.0148675,98.094713 11.4962401,94.4647765 C11.4962401,94.2054953 11.4098022,93.859787 11.4098022,93.6005059 C10.1132338,84.6120916 7.86584852,67.1538255 6.1370906,47.5348829 C5.70490112,42.3492593 5.27271164,37.0772087 4.92696006,31.718731 L24.5483624,17.9768285 L29.4753225,14.5197461 L44.77483,3.80279063 Z" id="Path" fill="#0035DB"></path>
                        <path d="M6.0506527,43.3863841 C5.79133902,43.3863841 5.61846323,43.2135299 5.61846323,42.9542488 C5.44558743,41.1392805 4.58120848,28.4345027 4.49477058,27.9159403 C4.49477058,27.6566592 4.66764637,27.483805 4.92696006,27.483805 C5.18627375,27.483805 5.35914954,27.6566592 5.35914954,27.9159403 C5.35914954,28.0887945 6.30996639,41.1392805 6.48284218,42.9542488 C6.48284218,43.2135299 6.30996639,43.3863841 6.0506527,43.3863841 C6.1370906,43.3863841 6.0506527,43.3863841 6.0506527,43.3863841 Z" id="Path" fill="#FFFFFF"></path>
                        <path d="M39.5021184,79.9450304 C39.5885563,78.7350516 39.7614321,77.5250727 39.84787,76.3150939 C41.5766279,58.6839737 42.8731963,42.8678217 43.5646995,35.3486675 C44.6019542,24.8909932 44.77483,3.80279063 44.77483,3.80279063 C39.5021184,2.5928118 34.7480341,1.55568708 30.4261393,0.604989419 C29.3888846,0.432135299 27.1414993,43.3863841 39.5021184,79.9450304 Z" id="Path" fill="#1045FD"></path>
                    </g>
                    <g id="Group" transform="translate(577.542497, 225.557225)">
                        <path d="M43.3053858,118.577926 C43.0460721,120.82503 42.9596342,124.282112 43.0460721,128.776319 C38.4648636,125.23281 34.2294067,121.170738 30.5125772,116.41725 C29.4753225,115.120844 28.5245056,113.824438 27.6601266,112.528032 C19.2756508,100.168962 14.2622528,85.6492163 10.804737,70.697335 C10.5454233,69.7466373 10.3725475,68.7095126 10.1132338,67.7588149 L10.1132338,67.7588149 C9.76748222,66.1167008 9.42173064,64.3881596 9.07597906,62.7460455 C7.43365904,54.3626207 6.1370906,45.8927688 4.92696006,37.8550522 C4.92696006,37.6821981 4.84052216,37.595771 4.84052216,37.4229169 C2.93888846,25.0638474 1.90163371,13.4826213 0.172875792,0.777843539 L1.81519581,0.950697659 L13.0521223,4.58063417 L17.6333307,6.04989419 L28.0058782,9.42054953 C28.178754,9.24769541 45.3798953,99.563973 43.3053858,118.577926 Z" id="Path" fill="#0035DB"></path>
                        <g id="Path">
                            <path d="M51.5169859,136.727609 L43.8240132,144.419617 L39.1563668,149.086678 C37.2547331,147.27171 35.5259752,145.370315 33.970093,143.209638 C29.821074,137.246171 26.6228719,130.677715 24.1161729,123.76355 C25.672055,121.343592 30.5125772,115.034417 30.5125772,115.034417 L43.0460721,127.912049 L51.5169859,136.727609 Z" fill="#FFB1B6"></path>
                            <path d="M44.9477058,143.209638 L51.430548,136.641182 L30.4261393,115.034417 C30.4261393,115.034417 28.7838193,117.195093 27.2279372,119.442197 C31.8955835,128.257757 37.7733605,136.468328 44.9477058,143.209638 Z" fill="#FFFFFF"></path>
                            <path d="M76.6704136,117.367947 C64.8284218,140.443972 56.5303838,149.345959 56.5303838,149.345959 L43.2189479,133.961943 L26.536434,114.775136 C26.536434,114.775136 26.9686235,113.910865 27.6601266,112.528032 C30.0803877,107.60169 35.4395373,96.1933177 35.4395373,95.5019012 C35.4395373,95.4154741 35.1802236,94.5512035 34.6615962,93.0819435 C31.8955835,85.3899352 22.6467287,60.4125149 14.4351286,38.3736146 C14.089377,37.4229169 13.7436254,36.5586463 13.3978738,35.6079487 C6.39640429,16.6804226 0.345751583,0.691416479 0.345751583,0.691416479 C0.864378958,0.777843539 1.38300633,0.777843539 1.90163371,0.864270599 C5.70490112,1.2964059 9.42173064,1.7285412 13.0521223,2.24710356 C14.6080044,2.50638474 16.1638865,2.67923886 17.7197686,2.93852004 C35.0073478,5.87704007 49.4424764,11.7540801 57.0490112,29.1259192 C67.162245,51.942663 88.5124053,94.2919223 76.6704136,117.367947 Z" fill="#0035DB"></path>
                            <path d="M29.043133,111.663761 C28.9566951,111.663761 28.8702572,111.663761 28.8702572,111.577334 C28.6973814,111.490907 28.6109435,111.231626 28.6973814,110.972345 L43.13251,85.0442269 C43.2189479,84.8713728 43.4782616,84.7849457 43.7375753,84.8713728 C43.9968889,84.9577999 43.9968889,85.217081 43.9104511,85.4763622 L29.4753225,111.40448 C29.3024467,111.577334 29.1295709,111.663761 29.043133,111.663761 Z" fill="#FFFFFF"></path>
                            <path d="M41.2308763,89.6248611 C41.0580005,89.6248611 40.8851247,89.452007 40.7986868,89.2791529 L31.549832,38.5464687 C31.549832,38.2871875 31.6362699,38.1143334 31.8955835,38.0279063 C32.1548972,37.9414793 32.327773,38.1143334 32.4142109,38.3736146 L41.6630658,89.1062987 C41.7495037,89.3655799 41.5766279,89.6248611 41.2308763,89.6248611 C41.3173142,89.6248611 41.3173142,89.6248611 41.2308763,89.6248611 Z" fill="#FFFFFF"></path>
                        </g>
                        <path d="M10.8911749,70.6109079 C10.6318612,69.6602103 10.4589854,68.6230855 10.1996717,67.6723879 L10.1996717,67.6723879 C9.85392012,66.0302738 9.50816854,64.3017326 9.16241695,62.6596184 C7.52009693,54.2761936 6.2235285,45.8063417 5.01339795,37.7686252 C5.01339795,37.595771 4.92696006,37.509344 4.92696006,37.3364899 C3.02532635,24.9774203 1.9880716,13.3961943 0.259313687,0.691416479 C0.777941062,0.777843539 1.29656844,0.777843539 1.81519581,0.864270599 C5.61846323,1.2964059 9.33529274,1.7285412 12.9656844,2.24710356 C14.6944423,2.41995768 15.6452591,55.0540371 10.8911749,70.6109079 Z" id="Path" fill="#1045FD"></path>
                    </g>
                </g>
            </g>
        </g>
    </g>
</svg>