<svg id="Layer_5" enable-background="new 0 0 64 64" height="512" viewBox="0 0 64 64" width="512" xmlns="http://www.w3.org/2000/svg"><g><g><path d="m47 31.777v-3.777h-7c0 4.418-3.582 8-8 8s-8-3.582-8-8h-7v3.777l2.802.713c.119.319.252.639.4.956l-1.48 2.49 5.342 5.342 2.49-1.48c.317.147.636.281.956.4l.713 2.802h7.555l.713-2.802c.319-.119.639-.252.956-.4l2.49 1.48 5.342-5.342-1.48-2.49c.147-.317.281-.636.4-.956z" fill="#f0bc5e"/></g><g><g><path d="m24 23c-1.654 0-3-1.346-3-3s1.346-3 3-3 3 1.346 3 3-1.346 3-3 3z" fill="#f0bc5e"/></g></g><g><g><path d="m32 23c-1.654 0-3-1.346-3-3s1.346-3 3-3 3 1.346 3 3-1.346 3-3 3z" fill="#f0bc5e"/></g></g><g><g><path d="m40 23c-1.654 0-3-1.346-3-3s1.346-3 3-3 3 1.346 3 3-1.346 3-3 3z" fill="#f0bc5e"/></g></g><g><path d="m32 37c4.624 0 8.441-3.507 8.941-8h8.059c4.411 0 8-3.589 8-8 0-4.084-3.076-7.463-7.034-7.942-.484-6.73-6.114-12.058-12.966-12.058-4.721 0-9.076 2.596-11.355 6.691-1.163-.459-2.385-.691-3.645-.691-5.514 0-10 4.486-10 10v.083c-2.834.478-5 2.949-5 5.917 0 3.309 2.691 6 6 6h10.059c.5 4.493 4.317 8 8.941 8zm-23-14c0-2.187 1.764-3.97 3.944-4l1.232.005-.123-1.11c-.032-.293-.053-.592-.053-.895 0-4.411 3.589-8 8-8 1.275 0 2.502.298 3.647.886l.929.477.437-.949c1.792-3.896 5.712-6.414 9.987-6.414 6.065 0 11 4.935 11 11v1h1c3.309 0 6 2.691 6 6s-2.691 6-6 6h-36c-2.206 0-4-1.794-4-4zm29.92 6c-.488 3.387-3.401 6-6.92 6s-6.432-2.613-6.92-6z"/><path d="m58.305 51.723c1.031-.917 1.695-2.238 1.695-3.723 0-2.414-1.721-4.434-4-4.899v-3.101c0-1.654-1.346-3-3-3h-8.787l-2 2h10.787c.551 0 1 .449 1 1v3.101c-2.279.465-4 2.484-4 4.899 0 1.485.664 2.806 1.695 3.723-2.765 1.261-4.695 4.045-4.695 7.277v4h16v-4c0-3.232-1.93-6.016-4.695-7.277zm-6.305-3.723c0-1.654 1.346-3 3-3s3 1.346 3 3-1.346 3-3 3-3-1.346-3-3zm9 13h-12v-2c0-3.309 2.691-6 6-6s6 2.691 6 6z"/><path d="m13 49c.551 0 1 .449 1 1h2c0-1.654-1.346-3-3-3v-2h-2v2h-3v3c0 1.654 1.346 3 3 3h2c.551 0 1 .449 1 1v1h-3c-.551 0-1-.449-1-1h-2c0 1.654 1.346 3 3 3v2h2v-2h3v-3c0-1.654-1.346-3-3-3h-2c-.551 0-1-.449-1-1v-1z"/><path d="m13 41.051v-1.051c0-.551.449-1 1-1h7.787l-2-2h-5.787c-1.654 0-3 1.346-3 3v1.051c-5.598.507-10 5.221-10 10.949 0 6.065 4.935 11 11 11s11-4.935 11-11c0-5.728-4.402-10.442-10-10.949zm-1 19.949c-4.962 0-9-4.038-9-9s4.038-9 9-9 9 4.038 9 9-4.038 9-9 9z"/><path d="m37 53h-4v-1-1-8h-2v8h-4v12h14v-8h-4zm-6 8h-2v-8h2zm2-6h2v6h-2zm6 2v4h-2v-4z"/><path d="m37 5v2c3.86 0 7 3.14 7 7 0 .297-.019.589-.054.876l1.984.248c.047-.37.07-.748.07-1.124 0-4.962-4.038-9-9-9z"/></g></g></svg>