<svg id="Layer_5" enable-background="new 0 0 64 64" height="512" viewBox="0 0 64 64" width="512" xmlns="http://www.w3.org/2000/svg"><path d="m30 45h-14c-1.103 0-2-.897-2-2v-2c0-1.103.897-2 2-2h14c1.103 0 2 .897 2 2v2c0 1.103-.897 2-2 2z" fill="#f0bc5e"/><path d="m45 25h-26v-20h26z" fill="#f0bc5e"/><path d="m58 15h-1v-1c0-1.654-1.346-3-3-3h-5v-10h-34v10h-5c-1.654 0-3 1.346-3 3v1h-1c-2.757 0-5 2.243-5 5v30c0 2.757 2.243 5 5 5h4v3c0 2.757 2.243 5 5 5h34c2.757 0 5-2.243 5-5v-3h4c2.757 0 5-2.243 5-5v-30c0-2.757-2.243-5-5-5zm-9 6h2v6h-2zm-2-18v24h-30v-24zm-32 24h-2v-6h2zm-6-13c0-.551.448-1 1-1h5v6h-4v10h42v-10h-4v-6h5c.552 0 1 .449 1 1v16c0 .551-.448 1-1 1h-44c-.552 0-1-.449-1-1zm-3 3h1v13c0 1.654 1.346 3 3 3h44c1.654 0 3-1.346 3-3v-13h1c1.654 0 3 1.346 3 3v15h-58v-15c0-1.654 1.346-3 3-3zm46.586 30h-41.172l-2.414-2.414v-7.586h46v7.586zm-46.586 6c-1.654 0-3-1.346-3-3v-13h4v8.414l3 3v4.586zm43 8h-34c-1.654 0-3-1.346-3-3v-9h40v9c0 1.654-1.346 3-3 3zm9-8h-4v-4.586l3-3v-8.414h4v13c0 1.654-1.346 3-3 3z"/><path d="m39 39c-1.654 0-3 1.346-3 3s1.346 3 3 3 3-1.346 3-3-1.346-3-3-3zm0 4c-.552 0-1-.448-1-1s.448-1 1-1 1 .448 1 1-.448 1-1 1z"/><path d="m47 39c-1.654 0-3 1.346-3 3s1.346 3 3 3 3-1.346 3-3-1.346-3-3-3zm0 4c-.552 0-1-.448-1-1s.448-1 1-1 1 .448 1 1-.448 1-1 1z"/><path d="m37 25h2v-6h6v-2h-8z"/><path d="m25 13h2v-2h-2v-2h-2v2c0 1.103.897 2 2 2z"/><path d="m25 21h2v-2h-2v-4h-2v4c0 1.103.897 2 2 2z"/><path d="m27 17h2v4h2v-4c0-1.103-.897-2-2-2h-2z"/><path d="m33 19h2v2h-2z"/><path d="m33 17h2v-2h6v-2h-6c-1.103 0-2 .897-2 2z"/><path d="m31 11h2v-2h-2c-1.103 0-2 .897-2 2v2h2z"/><path d="m35 9h2v2h-2z"/><path d="m39 9h2v2h-2z"/><path d="m16 51h-2v6c0 1.103.897 2 2 2h4v-2h-4z"/><path d="m40 51h2v2h-2z"/><path d="m48 51h2v2h-2z"/><path d="m44 51h2v2h-2z"/></svg>